<svg xmlns="http://www.w3.org/2000/svg" xml:space="preserve" width="278.96" height="275.131"><path d="M125.487 227.967c6.985-6.326 17.78-5.792 24.105 1.193 5.909 6.524 5.832 16.37.105 22.797l3.949 4.945 14.557 18.229-16.703-16.286-4.531-4.418c-6.96 5.065-16.766 4.169-22.675-2.355-6.326-6.984-5.791-17.779 1.193-24.105zM144.54 245.5l-2.692-3.371a5.133 5.133 0 1 0-3.885 3.519l3.089 3.011a9.03 9.03 0 1 1 2.584-14.103c2.8 3.092 3.059 7.595.904 10.944" style="fill:#f3771c;fill-opacity:1;fill-rule:evenodd;stroke:none;stroke-width:1"/><path d="M71.694 223.816c3.021 0 5.862.763 8.522 2.269 2.65 1.505 4.727 3.563 6.213 6.142 1.495 2.59 2.238 5.38 2.238 8.381 0 3.021-.753 5.842-2.248 8.472-1.506 2.63-3.543 4.677-6.133 6.162-2.59 1.476-5.44 2.218-8.561 2.218-4.587 0-8.502-1.636-11.744-4.897-3.242-3.263-4.867-7.228-4.867-11.894 0-4.999 1.836-9.165 5.5-12.497 3.211-2.9 6.905-4.356 11.08-4.356zm88.547.823h8.12v15.417c0 2.991.2 5.079.612 6.243.422 1.164 1.074 2.078 1.987 2.72.914.653 2.038.974 3.373.974 1.335 0 2.459-.321 3.392-.953.934-.643 1.626-1.577 2.078-2.81.33-.924.492-2.892.492-5.913v-15.678h8.06v13.56c0 5.59-.442 9.415-1.325 11.473-1.074 2.509-2.66 4.436-4.758 5.771-2.098 1.345-4.768 2.017-8 2.017-3.512 0-6.343-.783-8.51-2.348-2.169-1.576-3.695-3.754-4.578-6.564-.622-1.938-.943-5.47-.943-10.58zm101.746-.823c3.022 0 5.862.763 8.522 2.269 2.65 1.505 4.727 3.563 6.213 6.142 1.496 2.59 2.238 5.38 2.238 8.381 0 3.021-.753 5.842-2.248 8.472-1.505 2.63-3.543 4.677-6.133 6.162-2.59 1.476-5.44 2.218-8.561 2.218-4.587 0-8.502-1.636-11.744-4.897-3.241-3.263-4.868-7.228-4.868-11.894 0-4.999 1.837-9.165 5.5-12.497 3.213-2.9 6.906-4.356 11.081-4.356zm.12 7.558c-2.488 0-4.566.873-6.222 2.61-1.656 1.737-2.48 3.954-2.48 6.654 0 2.79.814 5.04 2.46 6.766 1.636 1.726 3.703 2.589 6.213 2.589 2.509 0 4.597-.873 6.263-2.62 1.666-1.746 2.5-3.984 2.5-6.735 0-2.74-.814-4.968-2.45-6.684-1.646-1.716-3.734-2.58-6.283-2.58zm-32.228-18.518h8v11.783h4.756v6.916h-4.757v25.082h-8v-25.082h-4.115v-6.916h4.116zm-18.057 0h8v11.783h4.756v6.916h-4.757v25.082h-7.999v-25.082h-4.116v-6.916h4.116zm-12.256-1.385c1.405 0 2.62.512 3.634 1.526 1.003 1.023 1.505 2.258 1.505 3.703 0 1.436-.492 2.66-1.495 3.664-1.004 1.013-2.198 1.515-3.583 1.515-1.436 0-2.66-.512-3.664-1.546-1.014-1.023-1.516-2.278-1.516-3.743 0-1.416.502-2.62 1.496-3.624 1.003-.993 2.208-1.495 3.623-1.495zm-4.035 13.168h8.06v31.999h-8.06zM0 224.639h8.06v3.684c1.374-1.516 2.9-2.64 4.576-3.383 1.677-.742 3.503-1.124 5.48-1.124 1.998 0 3.805.492 5.41 1.476 1.606.983 2.901 2.41 3.885 4.296 1.274-1.887 2.84-3.313 4.687-4.296 1.856-.984 3.875-1.476 6.072-1.476 2.279 0 4.276.532 6.003 1.596 1.726 1.054 2.96 2.44 3.713 4.145.763 1.707 1.135 4.477 1.135 8.321v18.76h-8.08v-16.23c0-3.634-.452-6.083-1.355-7.368-.904-1.284-2.259-1.927-4.056-1.927-1.374 0-2.61.391-3.693 1.175-1.094.783-1.897 1.867-2.429 3.251-.532 1.385-.793 3.604-.793 6.665v14.433h-8.09V241.14c0-2.86-.21-4.938-.632-6.223-.422-1.284-1.054-2.238-1.897-2.86-.844-.632-1.857-.944-3.052-.944a6.019 6.019 0 0 0-3.633 1.195c-1.084.792-1.907 1.907-2.439 3.332-.542 1.435-.813 3.684-.813 6.766v14.231H0Zm114.803 4.477-4.968 4.969c-2.017-1.998-3.844-3.002-5.49-3.002-.904 0-1.616.191-2.118.572-.512.381-.773.864-.773 1.426 0 .43.17.833.492 1.194.32.361 1.124.853 2.399 1.486l2.93 1.465c3.102 1.536 5.23 3.091 6.384 4.677 1.155 1.586 1.737 3.453 1.737 5.591 0 2.84-1.044 5.209-3.132 7.116-2.088 1.897-4.888 2.85-8.391 2.85-4.667 0-8.39-1.826-11.181-5.47l4.948-5.38a11.276 11.276 0 0 0 3.302 2.66c1.265.672 2.389 1.014 3.372 1.014 1.055 0 1.908-.25 2.55-.763.653-.512.974-1.094.974-1.767 0-1.234-1.165-2.438-3.493-3.613l-2.71-1.355c-5.18-2.61-7.76-5.871-7.76-9.786 0-2.53.975-4.697 2.922-6.484 1.947-1.796 4.447-2.7 7.488-2.7 2.077 0 4.024.462 5.86 1.375 1.838.914 3.393 2.218 4.658 3.925zm-42.988 2.258c-2.49 0-4.567.873-6.223 2.61-1.656 1.737-2.48 3.954-2.48 6.654 0 2.79.813 5.04 2.46 6.766 1.636 1.726 3.703 2.589 6.212 2.589 2.51 0 4.598-.873 6.264-2.62 1.666-1.746 2.5-3.984 2.5-6.735 0-2.74-.814-4.968-2.45-6.684-1.646-1.716-3.734-2.58-6.283-2.58" style="fill:#3c5280;fill-opacity:1;fill-rule:evenodd;stroke:none;stroke-width:1"/><path d="m139.48 212.131 3.88-52.993 3.149-43.031c6.49-2.743 11.044-9.168 11.044-16.655 0-9.98-8.093-18.073-18.073-18.073s-18.073 8.093-18.073 18.073c0 7.487 4.555 13.912 11.045 16.655l3.149 43.03z" style="fill:#f3771c;fill-opacity:1;fill-rule:evenodd;stroke:none;stroke-width:1"/><path d="M16.05 99.383c0 30.572 11.177 59.19 30.563 81.304l-11.684 10.474C13.053 166.266.364 133.933.364 99.383c0-38.93 16.001-74.13 41.782-99.383l.588.527 34.559 30.98c-32.48 29.776-39.207 78.198-16.608 115.5l11.93-10.694C55.39 105.193 61.952 65.885 89.04 42.038l11.834 10.606 10.524 9.436 10.917 9.786a32.545 32.545 0 0 0-10.144 10.067 32.21 32.21 0 0 0-5.055 17.373c0 14.25 9.216 26.352 22.01 30.672l1.101 15.038c-21.317-4.293-37.376-23.13-37.376-45.71a46.412 46.412 0 0 1 8.599-26.984l-10.445-9.366-.04-.035c-17.123 22.744-16.065 54.32 2.374 75.88l-35.043 31.414c-34.5-39.509-35.485-98.149-2.442-138.768l-11.689-10.48C28.03 40.557 17.814 65.2 16.257 92.162l-.07.08.063.057c-.133 2.345-.2 4.707-.2 7.085zm133.785 30.595c12.795-4.32 22.01-16.422 22.01-30.672a32.21 32.21 0 0 0-5.055-17.372 32.543 32.543 0 0 0-10.143-10.068l10.916-9.786 10.526-9.435-.001-.001 11.833-10.606c27.088 23.847 33.651 63.155 16.424 94.275l11.93 10.695c22.599-37.303 15.873-85.725-16.607-115.5L236.228.525l.586-.525c25.781 25.253 41.783 60.453 41.783 99.383 0 34.55-12.69 66.883-34.566 91.778l-11.683-10.474c19.385-22.113 30.563-50.732 30.563-81.304 0-2.378-.067-4.74-.2-7.085l.063-.057-.07-.08c-1.557-26.962-11.774-51.605-27.908-71.193l-11.689 10.48c33.044 40.618 32.058 99.258-2.442 138.767l-35.043-31.413c18.44-21.56 19.497-53.137 2.374-75.881l-.04.035-10.445 9.366a46.414 46.414 0 0 1 8.6 26.984c0 22.58-16.06 41.416-37.377 45.71z" style="fill:#3c5280;fill-opacity:1;fill-rule:evenodd;stroke:none;stroke-width:1"/></svg>