<svg xmlns="http://www.w3.org/2000/svg" xmlns:xlink="http://www.w3.org/1999/xlink"
aria-label="Eclipse Mosquitto" role="img"
viewBox="0 0 512 512"><path
d="m0 0H512V512H0"
fill="#fff"/><path id="a" fill="#3c5280" d="M85.65 255.9c0 42 15.8 81.8 42 112.5l-16.13 14.3C81.5 348.3 64 304 64 256c0-54 21.8-102.8 57.8-137.25l.812.728 48 42.8c-45 41.25-54 108-23.25 159.4l16.5-15c-24-43.5-15-97.5 22.5-129.8l16.5 15 14.25 12.8 15 13.5a45 45 0 0 0-14.25 14.25 45 45 0 0 0-7 24c0 19.5 12.8 36 30.8 42l1.5 21c-29.25-6-51.8-32.25-51.8-63a63.8 63.8 0 0 1 12-37.5l-14.25-12.8-.055-.05c-24 31.5-22.5 75 3 105l-48 43.5c-47.25-54.8-48.8-135.8-3-191.25L124.8 148c-22.5 27-36 60.8-38.25 98.25l-.1.11.089.079a172.5 172.5 0 0 0-.276 9.8z"/><use xlink:href="#a" transform="matrix(-1 0 0 1 512 0)"/><g fill="#f3771c" transform="matrix(.75 0 0 .75 64 64)"><path d="m256 463 13-177h-26Z"/><circle cx="256" cy="256" r="33"/></g></svg>
