<svg xmlns="http://www.w3.org/2000/svg" xml:space="preserve" width="338.818" height="68.285"><path d="M208.515 22.11c5.93-5.37 15.096-4.917 20.467 1.013 5.016 5.539 4.95 13.9.088 19.355l3.353 4.198 12.36 15.478L230.6 48.327l-3.847-3.751c-5.91 4.3-14.235 3.539-19.251-2-5.371-5.93-4.918-15.095 1.012-20.466zm16.177 14.885-2.285-2.862a4.358 4.358 0 1 0-3.299 2.988l2.622 2.556a7.667 7.667 0 1 1 2.194-11.974 7.67 7.67 0 0 1 .768 9.292" style="fill:#f3771c;fill-opacity:1;fill-rule:evenodd;stroke:none;stroke-width:1"/><path d="M238.022 19.285h6.895v13.09c0 2.539.17 4.311.519 5.3.358.989.912 1.764 1.687 2.31.776.553 1.73.826 2.864.826 1.133 0 2.088-.273 2.88-.81.793-.545 1.38-1.338 1.765-2.386.28-.784.417-2.454.417-5.019V19.285h6.843v11.513c0 4.746-.375 7.994-1.125 9.74-.912 2.13-2.259 3.767-4.04 4.9-1.78 1.142-4.047 1.713-6.791 1.713-2.983 0-5.386-.665-7.227-1.994-1.84-1.338-3.136-3.187-3.886-5.573-.528-1.645-.801-4.645-.801-8.982zm-75.178-.699c2.565 0 4.977.648 7.235 1.926 2.25 1.278 4.013 3.025 5.275 5.215a13.981 13.981 0 0 1 1.9 7.116c0 2.565-.639 4.96-1.909 7.193-1.278 2.232-3.008 3.97-5.206 5.232-2.199 1.253-4.62 1.883-7.27 1.883-3.894 0-7.217-1.39-9.97-4.159-2.753-2.769-4.133-6.135-4.133-10.098 0-4.243 1.56-7.78 4.67-10.61 2.727-2.462 5.863-3.698 9.408-3.698zm-60.87.699h6.842v3.128c1.167-1.287 2.463-2.242 3.885-2.873 1.424-.63 2.975-.954 4.654-.954 1.696 0 3.23.418 4.593 1.253 1.364.835 2.463 2.045 3.298 3.648 1.082-1.603 2.411-2.813 3.98-3.648 1.576-.835 3.289-1.253 5.155-1.253 1.935 0 3.63.452 5.096 1.355 1.466.895 2.515 2.071 3.153 3.52.648 1.448.964 3.8.964 7.064v15.927h-6.861v-13.78c0-3.084-.383-5.163-1.15-6.254-.767-1.09-1.917-1.637-3.443-1.637-1.167 0-2.216.333-3.136.998-.929.665-1.61 1.585-2.062 2.76-.452 1.176-.674 3.06-.674 5.659v12.254H119.4V33.294c0-2.428-.18-4.192-.537-5.283-.358-1.09-.895-1.9-1.61-2.428-.716-.537-1.577-.802-2.591-.802a5.11 5.11 0 0 0-3.085 1.015c-.92.673-1.619 1.619-2.07 2.829-.461 1.218-.691 3.127-.691 5.744v12.083h-6.843zm97.47 3.8-4.218 4.22c-1.712-1.697-3.263-2.549-4.661-2.549-.767 0-1.372.162-1.798.486-.435.323-.656.733-.656 1.21 0 .366.144.707.417 1.014.273.307.954.724 2.037 1.261l2.488 1.244c2.633 1.304 4.44 2.625 5.42 3.971.98 1.347 1.475 2.932 1.475 4.747 0 2.411-.887 4.423-2.66 6.042-1.772 1.61-4.15 2.42-7.123 2.42-3.963 0-7.125-1.55-9.494-4.644l4.201-4.568a9.572 9.572 0 0 0 2.804 2.258c1.074.57 2.028.861 2.863.861.895 0 1.62-.213 2.165-.647.554-.435.827-.93.827-1.5 0-1.049-.989-2.072-2.966-3.068l-2.3-1.15c-4.398-2.216-6.588-4.986-6.588-8.31 0-2.147.826-3.988 2.48-5.504 1.653-1.526 3.775-2.293 6.357-2.293 1.764 0 3.417.392 4.976 1.168 1.56.775 2.88 1.883 3.955 3.332zm-36.498 1.918c-2.113 0-3.877.741-5.283 2.216-1.406 1.474-2.105 3.357-2.105 5.65 0 2.369.69 4.278 2.088 5.743 1.389 1.466 3.144 2.199 5.275 2.199 2.13 0 3.903-.742 5.317-2.224 1.415-1.483 2.122-3.383 2.122-5.719 0-2.326-.69-4.217-2.08-5.675-1.397-1.457-3.17-2.19-5.334-2.19zm161.462-6.417c2.565 0 4.977.648 7.234 1.926 2.25 1.278 4.014 3.025 5.276 5.215a13.976 13.976 0 0 1 1.9 7.116c0 2.565-.64 4.96-1.909 7.193-1.278 2.232-3.008 3.97-5.207 5.232-2.198 1.253-4.618 1.883-7.268 1.883-3.895 0-7.218-1.39-9.97-4.159-2.753-2.769-4.134-6.135-4.134-10.098 0-4.243 1.56-7.78 4.67-10.61 2.727-2.462 5.863-3.698 9.408-3.698zm.102 6.417c-2.113 0-3.877.741-5.283 2.216-1.406 1.474-2.105 3.357-2.105 5.65 0 2.369.69 4.278 2.088 5.743 1.389 1.466 3.144 2.199 5.275 2.199 2.13 0 3.903-.742 5.317-2.224 1.415-1.483 2.122-3.383 2.122-5.719 0-2.326-.69-4.217-2.08-5.675-1.396-1.457-3.17-2.19-5.334-2.19zM297.147 9.281h6.792v10.004h4.039v5.872h-4.04v21.295h-6.791V25.157h-3.494v-5.872h3.494zm-15.33 0h6.79v10.004h4.04v5.872h-4.04v21.295h-6.79V25.157h-3.495v-5.872h3.494zM271.41 8.105c1.193 0 2.224.434 3.085 1.295.852.869 1.277 1.917 1.277 3.144 0 1.219-.417 2.258-1.27 3.11-.851.861-1.865 1.288-3.041 1.288-1.219 0-2.259-.435-3.11-1.313-.861-.869-1.288-1.935-1.288-3.178 0-1.202.427-2.225 1.27-3.077.852-.843 1.875-1.27 3.077-1.27zm-3.426 11.18h6.843v27.167h-6.843z" style="fill:#3c5280;fill-opacity:1;fill-rule:evenodd;stroke:none;stroke-width:1"/><path d="m44.782 68.285 1.248-17.059 1.014-13.851a5.818 5.818 0 1 0-4.525 0l1.014 13.851Z" style="fill:#f3771c;fill-opacity:1;fill-rule:evenodd;stroke:none;stroke-width:1"/><path d="M5.05 31.992a39.598 39.598 0 0 0 9.838 26.171l-3.761 3.372A44.662 44.662 0 0 1 0 31.992C0 19.46 5.15 8.128 13.45 0l.189.17 11.124 9.972c-10.455 9.585-12.62 25.172-5.346 37.18l3.84-3.443c-5.544-10.017-3.432-22.67 5.288-30.347l3.809 3.414 3.388 3.038 3.514 3.15a10.468 10.468 0 0 0-3.265 3.24 10.368 10.368 0 0 0-1.627 5.593c0 4.587 2.966 8.482 7.084 9.873l.355 4.841C34.94 45.299 29.77 39.235 29.77 31.967c0-3.237 1.025-6.235 2.768-8.687l-3.362-3.014-.012-.012c-5.512 7.322-5.172 17.486.764 24.427L18.648 54.792C7.543 42.075 7.226 23.198 17.862 10.123L14.1 6.75a39.552 39.552 0 0 0-8.984 22.917l-.023.026.02.018a40.215 40.215 0 0 0-.064 2.28zm43.065 9.848c4.118-1.39 7.085-5.286 7.085-9.873a10.37 10.37 0 0 0-1.627-5.592 10.48 10.48 0 0 0-3.265-3.241l3.514-3.15 3.388-3.038 3.809-3.414c8.719 7.677 10.832 20.33 5.286 30.347l3.84 3.443c7.276-12.008 5.11-27.595-5.345-37.18L75.925.17 76.113 0c8.3 8.13 13.45 19.46 13.45 31.992a44.662 44.662 0 0 1-11.126 29.543l-3.761-3.372a39.596 39.596 0 0 0 9.838-26.171c0-.766-.022-1.527-.064-2.281l.02-.018-.023-.026A39.553 39.553 0 0 0 75.464 6.75L71.7 10.123c10.637 13.075 10.32 31.951-.786 44.67L59.635 44.68c5.935-6.94 6.276-17.104.764-24.426l-.013.011-3.362 3.016a14.94 14.94 0 0 1 2.768 8.685c0 7.27-5.17 13.332-12.032 14.715l.355-4.841z" style="fill:#3c5280;fill-opacity:1;fill-rule:evenodd;stroke:none;stroke-width:1"/></svg>