<svg xmlns="http://www.w3.org/2000/svg" xml:space="preserve" width="152.763" height="152.763"><path d="m76.382 146.04-5.418-53.506-1.61-11.742c-6.49-2.742-11.045-9.168-11.045-16.655 0-9.98 8.093-18.073 18.073-18.073s18.073 8.094 18.073 18.073c0 7.487-4.555 13.913-11.045 16.655l-1.405 11.434z" style="fill:#f3771c;fill-opacity:1;fill-rule:evenodd;stroke:none;stroke-width:1"/><path d="M133.593 113.266s5.46-6.5 9.654-12.267c17.226-31.12 10.663-70.428-16.424-94.275l-11.834 10.605-10.524 9.437-10.917 9.786a32.545 32.545 0 0 1 10.144 10.067 32.21 32.21 0 0 1 5.055 17.373c0 14.25-9.216 26.352-22.01 30.671l-1.101 15.039c21.317-4.294 37.376-23.13 37.376-45.71a46.412 46.412 0 0 0-8.599-26.985l10.445-9.365.04-.036c17.123 22.745 16.065 54.32-2.374 75.881zM66.027 94.663c-12.795-4.32-22.01-16.422-22.01-30.671a32.21 32.21 0 0 1 5.055-17.373 32.543 32.543 0 0 1 10.143-10.067l-10.916-9.786-10.526-9.436h.001L25.941 6.723C-1.147 30.57-7.71 69.879 9.517 100.999l9.304 12.791 11.419-10.303c-18.44-21.56-19.497-53.136-2.374-75.88l.04.035 10.445 9.365a46.414 46.414 0 0 0-8.6 26.985c0 22.58 16.06 41.416 37.377 45.71z" style="fill:#3c5280;fill-opacity:1;fill-rule:evenodd;stroke:none;stroke-width:1"/></svg>