<svg xmlns="http://www.w3.org/2000/svg" width="558" height="335" viewBox="0 0 558 335"><g transform="translate(279 167.5) scale(0.85) translate(-279 -167.5)"><style>.t{font-family: ui-sans-serif, system-ui, sans-serif, "Apple Color Emoji", "Segoe UI Emoji", "Segoe UI Symbol", "Noto Color Emoji";font-size:30px}</style><path d="M263.6 171.1a11.3 11.3 0 0 1 16 16l2.7 3.2 9.7 12.1-11.1-10.8-3-3a11.3 11.3 0 0 1-14.3-17.5zm12.6 11.6-1.7-2.2a3.4 3.4 0 1 0-2.6 2.3l2 2a6 6 0 1 1 1.8-9.3 6 6 0 0 1 .5 7.2" style="fill:#f3771c;fill-rule:evenodd"/><path d="M227.9 168.3a11.3 11.3 0 0 1 9.8 5.6 11 11 0 0 1 1.5 5.6 11.2 11.2 0 0 1-1.5 5.6 11.3 11.3 0 0 1-17.5 2.3 10.8 10.8 0 0 1-3.3-7.9c0-3.3 1.2-6 3.6-8.3 2.2-1.9 4.6-2.9 7.4-2.9zm58.8.6h5.4V179c0 2 0 3.4.4 4.2.2.7.7 1.3 1.3 1.8.6.4 1.3.6 2.2.6a4 4 0 0 0 2.3-.6c.6-.4 1-1 1.4-1.9.2-.6.3-1.9.3-3.9v-10.4h5.3v9a22 22 0 0 1-.8 7.6c-.8 1.7-1.8 3-3.2 3.8a9.7 9.7 0 0 1-5.3 1.4c-2.3 0-4.2-.5-5.7-1.6a8.3 8.3 0 0 1-3-4.3c-.4-1.3-.6-3.7-.6-7zm67.5-.6a11.3 11.3 0 0 1 9.8 5.6 11 11 0 0 1 1.5 5.6 11.2 11.2 0 0 1-1.5 5.6c-1 1.8-2.4 3.1-4 4.1a11.3 11.3 0 0 1-13.6-1.8 10.8 10.8 0 0 1-3.2-7.9c0-3.3 1.2-6 3.7-8.3 2-1.9 4.5-2.9 7.3-2.9zm0 5c-1.6 0-3 .6-4 1.8s-1.7 2.6-1.7 4.4c0 1.9.5 3.4 1.6 4.5s2.5 1.7 4.2 1.7c1.6 0 3-.6 4.1-1.7a6.2 6.2 0 0 0 1.7-4.5c0-1.8-.6-3.3-1.6-4.4a5.5 5.5 0 0 0-4.2-1.7zM333 161.2h5.3v7.8h3.2v4.6h-3.2V190h-5.3v-16.6h-2.7v-4.6h2.7zm-12 0h5.3v7.8h3.2v4.6h-3.2V190H321v-16.6h-2.7v-4.6h2.7zm-8.1-1a3.4 3.4 0 0 1 3.4 3.5c0 1-.3 1.8-1 2.5-.7.6-1.5 1-2.4 1a3.4 3.4 0 0 1-3.4-3.5c0-1 .3-1.8 1-2.5a3.3 3.3 0 0 1 2.4-1zM310 169h5.3V190h-5.3zm-129.8 0h5.4v2.4a8.9 8.9 0 0 1 6.7-3 6.7 6.7 0 0 1 6.1 3.9 8.5 8.5 0 0 1 11.1-2.8 6 6 0 0 1 2.5 2.8c.5 1 .8 3 .8 5.5V190h-5.4v-10.7c0-2.5-.3-4-1-5-.5-.8-1.4-1.2-2.6-1.2a4 4 0 0 0-2.5.8c-.7.5-1.2 1.2-1.6 2.1-.3 1-.5 2.4-.5 4.4v9.6H194v-10.3c0-1.9-.1-3.2-.4-4-.3-1-.7-1.6-1.2-2-.6-.4-1.3-.6-2-.6a4 4 0 0 0-2.5.8c-.7.5-1.2 1.2-1.6 2.2-.4 1-.5 2.4-.5 4.5v9.4h-5.4zm76.2 3-3.3 3.3c-1.3-1.4-2.5-2-3.6-2-.6 0-1.1 0-1.4.3-.4.3-.5.6-.5 1 0 .3 0 .5.3.8.2.2.7.6 1.6 1l2 1c2 1 3.4 2 4.2 3 .7 1.1 1.1 2.3 1.1 3.8 0 1.8-.7 3.4-2 4.7a8 8 0 0 1-5.6 1.9 8.9 8.9 0 0 1-7.5-3.7l3.3-3.5a7.5 7.5 0 0 0 2.2 1.7c.9.5 1.6.7 2.3.7.7 0 1.2-.2 1.6-.5.5-.3.7-.7.7-1.2 0-.8-.8-1.6-2.3-2.4l-1.8-.9c-3.5-1.7-5.2-3.9-5.2-6.5 0-1.6.7-3 2-4.3a7 7 0 0 1 5-1.8 8.6 8.6 0 0 1 3.8 1 8.5 8.5 0 0 1 3.1 2.6zm-28.5 1.5c-1.7 0-3 .5-4.2 1.7a6.1 6.1 0 0 0-1.6 4.4c0 1.9.5 3.4 1.6 4.5s2.5 1.7 4.2 1.7c1.6 0 3-.6 4.1-1.7a6.2 6.2 0 0 0 1.7-4.5c0-1.8-.6-3.3-1.7-4.4a5.5 5.5 0 0 0-4.1-1.7" fill="#3c5280"/><path d="m272.9 160.6 2.6-35.2 2-28.5a12 12 0 1 0-9.3 0l2.1 28.5z" fill="#f3771c"/><path d="M191 85.8c0 20.2 7.4 39.2 20.3 54l-7.8 6.9a92 92 0 0 1-23-61 92 92 0 0 1 27.8-66l.4.4 23 20.6a61.1 61.1 0 0 0-11.1 76.7l8-7.1a50.7 50.7 0 0 1 10.8-62.6l7.9 7 7 6.3 7.2 6.5a21.6 21.6 0 0 0-6.7 6.7 21.4 21.4 0 0 0-3.4 11.5c0 9.5 6.1 17.5 14.6 20.4l.7 10A31 31 0 0 1 242 85.6a30.8 30.8 0 0 1 5.7-18l-6.9-6.1a40.3 40.3 0 0 0 1.6 50.3L219 132.8a71.5 71.5 0 0 1-1.6-92.1l-7.8-7A81.6 81.6 0 0 0 191.1 81a83 83 0 0 0-.1 4.8zm88.8 20.3a21.5 21.5 0 0 0 14.6-20.4 21.4 21.4 0 0 0-3.4-11.5 21.6 21.6 0 0 0-6.7-6.7l7.2-6.5 7-6.3 7.9-7c18 15.8 22.3 42 10.9 62.6l7.9 7a61.1 61.1 0 0 0-11-76.6l23-20.6.3-.3a92 92 0 0 1 27.7 66 92 92 0 0 1-23 60.9l-7.7-7A81.7 81.7 0 0 0 354.7 81a81.6 81.6 0 0 0-18.5-47.3l-7.8 7c22 27 21.3 65.8-1.6 92L303.5 112a40.3 40.3 0 0 0 1.6-50.4l-7 6.3a30.8 30.8 0 0 1 5.7 17.9A31 31 0 0 1 279 116z" fill="#3c5280"/><text x="50%" y="69%" class="t" style="font-size:26px;fill:#696969" text-anchor="middle">Brought to you by</text><text x="50%" y="82%" class="t" text-anchor="middle">The Mosquitto Team,</text><text x="50%" y="94%" class="t" text-anchor="middle">Cedalo, and the community</text></g></svg>
